<svg width="16" height="17" viewBox="0 0 16 17" fill="none" xmlns="http://www.w3.org/2000/svg">
<g clip-path="url(#clip0_47_8171)">
<path d="M8.39068 1.86601C8.14069 1.61594 7.8016 1.47542 7.44801 1.47534H2.66668C2.31305 1.47534 1.97392 1.61582 1.72387 1.86587C1.47382 2.11591 1.33334 2.45505 1.33334 2.80868V7.59001C1.33342 7.9436 1.47394 8.28269 1.72401 8.53268L7.52668 14.3353C7.82969 14.6364 8.23951 14.8054 8.66668 14.8054C9.09385 14.8054 9.50367 14.6364 9.80668 14.3353L14.1933 9.94868C14.4944 9.64567 14.6634 9.23584 14.6634 8.80868C14.6634 8.38151 14.4944 7.97168 14.1933 7.66868L8.39068 1.86601Z" stroke="white" stroke-width="1.33333" stroke-linecap="round" stroke-linejoin="round"/>
<path d="M4.99999 5.4755C5.18408 5.4755 5.33332 5.32627 5.33332 5.14217C5.33332 4.95808 5.18408 4.80884 4.99999 4.80884C4.81589 4.80884 4.66666 4.95808 4.66666 5.14217C4.66666 5.32627 4.81589 5.4755 4.99999 5.4755Z" fill="white" stroke="white" stroke-width="1.33333" stroke-linecap="round" stroke-linejoin="round"/>
</g>
<defs>
<clipPath id="clip0_47_8171">
<rect width="16" height="16" fill="white" transform="translate(0 0.14209)"/>
</clipPath>
</defs>
</svg>
