<svg width="17" height="17" viewBox="0 0 17 17" fill="none" xmlns="http://www.w3.org/2000/svg">
<path d="M10.0267 2.80884H6.69333L5.02666 4.80884H3.02666C2.67304 4.80884 2.3339 4.94931 2.08385 5.19936C1.8338 5.44941 1.69333 5.78855 1.69333 6.14217V12.1422C1.69333 12.4958 1.8338 12.8349 2.08385 13.085C2.3339 13.335 2.67304 13.4755 3.02666 13.4755H13.6933C14.047 13.4755 14.3861 13.335 14.6361 13.085C14.8862 12.8349 15.0267 12.4958 15.0267 12.1422V6.14217C15.0267 5.78855 14.8862 5.44941 14.6361 5.19936C14.3861 4.94931 14.047 4.80884 13.6933 4.80884H11.6933L10.0267 2.80884Z" stroke="white" stroke-width="1.33333" stroke-linecap="round" stroke-linejoin="round"/>
<path d="M8.35999 10.8088C9.46456 10.8088 10.36 9.91341 10.36 8.80884C10.36 7.70427 9.46456 6.80884 8.35999 6.80884C7.25542 6.80884 6.35999 7.70427 6.35999 8.80884C6.35999 9.91341 7.25542 10.8088 8.35999 10.8088Z" stroke="white" stroke-width="1.33333" stroke-linecap="round" stroke-linejoin="round"/>
</svg>
