<svg width="16" height="16" viewBox="0 0 16 16" fill="none" xmlns="http://www.w3.org/2000/svg">
<g clip-path="url(#clip0_126_54)">
<path d="M1.99468 10.8946C2.09271 11.1419 2.11453 11.4128 2.05735 11.6726L1.34735 13.866C1.32447 13.9772 1.33039 14.0924 1.36453 14.2007C1.39868 14.309 1.45993 14.4068 1.54246 14.4848C1.625 14.5628 1.72609 14.6184 1.83615 14.6464C1.94621 14.6744 2.06159 14.6738 2.17135 14.6446L4.44668 13.9793C4.69183 13.9307 4.9457 13.9519 5.17935 14.0406C6.60294 14.7054 8.2156 14.8461 9.73279 14.4378C11.25 14.0295 12.5742 13.0984 13.4718 11.8089C14.3694 10.5193 14.7828 8.95423 14.6389 7.38966C14.495 5.82509 13.8031 4.3616 12.6854 3.25742C11.5676 2.15324 10.0958 1.47932 8.52961 1.35456C6.96339 1.2298 5.40344 1.66221 4.12498 2.57552C2.84652 3.48882 1.93171 4.82432 1.54195 6.34638C1.15219 7.86845 1.31253 9.47926 1.99468 10.8946Z" stroke="white" stroke-width="1.33333" stroke-linecap="round" stroke-linejoin="round"/>
</g>
<defs>
<clipPath id="clip0_126_54">
<rect width="16" height="16" fill="white"/>
</clipPath>
</defs>
</svg>
