<svg width="16" height="16" viewBox="0 0 16 16" fill="none" xmlns="http://www.w3.org/2000/svg">
<path d="M4.00001 12.6666C5.47277 12.6666 6.66668 11.4727 6.66668 9.99992C6.66668 8.52716 5.47277 7.33325 4.00001 7.33325C2.52725 7.33325 1.33334 8.52716 1.33334 9.99992C1.33334 11.4727 2.52725 12.6666 4.00001 12.6666Z" stroke="white" stroke-width="1.33333" stroke-linecap="round" stroke-linejoin="round"/>
<path d="M12 12.6666C13.4728 12.6666 14.6667 11.4727 14.6667 9.99992C14.6667 8.52716 13.4728 7.33325 12 7.33325C10.5273 7.33325 9.33334 8.52716 9.33334 9.99992C9.33334 11.4727 10.5273 12.6666 12 12.6666Z" stroke="white" stroke-width="1.33333" stroke-linecap="round" stroke-linejoin="round"/>
<path d="M9.33332 10.0001C9.33332 9.64646 9.19285 9.30732 8.9428 9.05727C8.69275 8.80722 8.35361 8.66675 7.99999 8.66675C7.64637 8.66675 7.30723 8.80722 7.05718 9.05727C6.80713 9.30732 6.66666 9.64646 6.66666 10.0001" stroke="white" stroke-width="1.33333" stroke-linecap="round" stroke-linejoin="round"/>
<path d="M1.66666 8.66659L3.33332 4.66659C3.79999 3.79992 4.26666 3.33325 5.33332 3.33325" stroke="white" stroke-width="1.33333" stroke-linecap="round" stroke-linejoin="round"/>
<path d="M14.3333 8.66659L12.6667 4.66659C12.2 3.79992 11.6667 3.33325 10.6667 3.33325" stroke="white" stroke-width="1.33333" stroke-linecap="round" stroke-linejoin="round"/>
</svg>
