<svg width="16" height="16" viewBox="0 0 16 16" fill="none" xmlns="http://www.w3.org/2000/svg">
<path d="M1.33334 6.33344C1.33336 5.59158 1.55841 4.86716 1.97877 4.25588C2.39913 3.6446 2.99502 3.17521 3.68775 2.90971C4.38048 2.6442 5.13745 2.59507 5.85869 2.7688C6.57992 2.94254 7.23149 3.33096 7.72734 3.88278C7.76227 3.92012 7.80449 3.94989 7.85139 3.97024C7.8983 3.99059 7.94888 4.0011 8.00001 4.0011C8.05114 4.0011 8.10172 3.99059 8.14863 3.97024C8.19553 3.94989 8.23775 3.92012 8.27268 3.88278C8.76697 3.32737 9.41869 2.93569 10.1411 2.75984C10.8635 2.584 11.6223 2.63234 12.3166 2.89843C13.0108 3.16452 13.6076 3.63574 14.0274 4.24938C14.4472 4.86301 14.6702 5.58995 14.6667 6.33344C14.6667 7.86011 13.6667 9.00011 12.6667 10.0001L9.00534 13.5421C8.88112 13.6848 8.72796 13.7994 8.55604 13.8783C8.38412 13.9572 8.19737 13.9987 8.0082 13.9999C7.81903 14.0011 7.63178 13.962 7.45887 13.8853C7.28596 13.8085 7.13136 13.6959 7.00534 13.5548L3.33334 10.0001C2.33334 9.00011 1.33334 7.86678 1.33334 6.33344Z" fill="white" stroke="white" stroke-width="1.33333" stroke-linecap="round" stroke-linejoin="round"/>
</svg>
