<svg width="17" height="17" viewBox="0 0 17 17" fill="none" xmlns="http://www.w3.org/2000/svg">
<g clip-path="url(#clip0_47_8164)">
<path d="M13.9733 6.80868C13.9733 10.1373 10.2807 13.604 9.04067 14.6747C8.92515 14.7615 8.78454 14.8085 8.64 14.8085C8.49547 14.8085 8.35486 14.7615 8.23934 14.6747C6.99934 13.604 3.30667 10.1373 3.30667 6.80868C3.30667 5.39419 3.86857 4.03763 4.86877 3.03744C5.86896 2.03725 7.22552 1.47534 8.64 1.47534C10.0545 1.47534 11.411 2.03725 12.4112 3.03744C13.4114 4.03763 13.9733 5.39419 13.9733 6.80868Z" stroke="white" stroke-width="1.33333" stroke-linecap="round" stroke-linejoin="round"/>
<path d="M8.64001 8.80884C9.74458 8.80884 10.64 7.91341 10.64 6.80884C10.64 5.70427 9.74458 4.80884 8.64001 4.80884C7.53545 4.80884 6.64001 5.70427 6.64001 6.80884C6.64001 7.91341 7.53545 8.80884 8.64001 8.80884Z" stroke="white" stroke-width="1.33333" stroke-linecap="round" stroke-linejoin="round"/>
</g>
<defs>
<clipPath id="clip0_47_8164">
<rect width="16" height="16" fill="white" transform="translate(0.640015 0.14209)"/>
</clipPath>
</defs>
</svg>
