<svg width="116" height="95" viewBox="0 0 116 95" fill="none" xmlns="http://www.w3.org/2000/svg">
<path d="M91.6864 93.5724C100.659 93.5724 107.934 86.3033 107.942 77.3318L108.01 21.2246H7.25781L7.32608 77.3318C7.33418 86.3033 14.6096 93.5724 23.5817 93.5724H91.6864Z" fill="white" stroke="black" stroke-miterlimit="10" stroke-linecap="round" stroke-linejoin="round"/>
<path d="M77.502 93.6436V60.1604" stroke="black" stroke-miterlimit="10" stroke-linecap="round" stroke-linejoin="round"/>
<path d="M37.7637 60.0166V93.4997" stroke="black" stroke-miterlimit="10" stroke-linecap="round" stroke-linejoin="round"/>
<path d="M64.6514 54.498C68.0777 54.498 70.8549 57.2753 70.8549 60.7016C70.8549 64.1279 68.0777 66.9051 64.6514 66.9051H50.6235C47.1972 66.9051 44.4199 64.1279 44.4199 60.7016C44.4199 57.2753 47.1972 54.498 50.6235 54.498H64.6514Z" fill="white" stroke="black" stroke-miterlimit="10" stroke-linecap="round" stroke-linejoin="round"/>
<path d="M49.2832 60.7012H65.9912" stroke="black" stroke-miterlimit="10" stroke-linecap="round" stroke-linejoin="round"/>
<path d="M56.4629 41.6771C56.4629 36.7155 52.4414 32.6934 47.4798 32.6934C42.5188 32.6934 38.4961 36.7155 38.4961 41.6771C38.4961 46.6386 42.5188 50.6602 47.4798 50.6602C52.4414 50.6602 56.4629 46.6386 56.4629 41.6771Z" fill="white"/>
<path d="M38.4967 41.6761C38.4967 36.7149 42.5186 32.693 47.4798 32.693C52.441 32.693 56.4629 36.7149 56.4629 41.6761C56.4629 46.6373 52.441 50.6592 47.4798 50.6592C42.5186 50.6592 38.4967 46.6373 38.4967 41.6761Z" stroke="black" stroke-miterlimit="10" stroke-linecap="round" stroke-linejoin="round"/>
<path d="M51.8242 41.6764C51.8242 39.2774 49.88 37.3326 47.4805 37.3326C45.0821 37.3326 43.1373 39.2774 43.1373 41.6764C43.1373 44.0753 45.0821 46.0195 47.4805 46.0195C49.88 46.0195 51.8242 44.0753 51.8242 41.6764Z" fill="black"/>
<path d="M76.7773 41.6771C76.7773 36.7155 72.7552 32.6934 67.7942 32.6934C62.8327 32.6934 58.8106 36.7155 58.8106 41.6771C58.8106 46.6386 62.8327 50.6602 67.7942 50.6602C72.7552 50.6602 76.7773 46.6386 76.7773 41.6771Z" fill="white"/>
<path d="M58.8112 41.6761C58.8112 36.7149 62.833 32.693 67.7942 32.693C72.7555 32.693 76.7773 36.7149 76.7773 41.6761C76.7773 46.6373 72.7555 50.6592 67.7942 50.6592C62.833 50.6592 58.8112 46.6373 58.8112 41.6761Z" stroke="black" stroke-miterlimit="10" stroke-linecap="round" stroke-linejoin="round"/>
<path d="M72.1367 41.6764C72.1367 39.2774 70.1925 37.3326 67.7935 37.3326C65.3946 37.3326 63.4498 39.2774 63.4498 41.6764C63.4498 44.0753 65.3946 46.0195 67.7935 46.0195C70.1925 46.0195 72.1367 44.0753 72.1367 41.6764Z" fill="black"/>
<path d="M80.479 24.9326C76.7739 30.3431 70.251 35.0889 57.6339 35.0889H57.6386C45.0215 35.0889 38.4987 30.3431 34.793 24.9326" fill="white"/>
<path d="M80.479 24.9326C76.7739 30.3431 70.251 35.0889 57.6339 35.0889H57.6386C45.0215 35.0889 38.4987 30.3431 34.793 24.9326" stroke="black" stroke-miterlimit="10" stroke-linecap="round" stroke-linejoin="round"/>
<path d="M85.057 0.5H29.1477V0.526613C13.2328 1.08657 0.5 14.1566 0.5 30.2086V56.3104C0.5 58.5919 2.34996 60.4419 4.63203 60.4419H30.2086V21.2243H85.057V60.4419H110.634C112.916 60.4419 114.766 58.5919 114.766 56.3104V30.2086C114.766 13.8008 101.465 0.5 85.057 0.5Z" fill="black" stroke="black" stroke-miterlimit="10" stroke-linecap="round" stroke-linejoin="round"/>
<path d="M5.30664 31.5332V43.0043" stroke="white" stroke-miterlimit="10" stroke-linecap="round" stroke-linejoin="round"/>
<path d="M9.36523 31.5332V43.0043" stroke="white" stroke-miterlimit="10" stroke-linecap="round" stroke-linejoin="round"/>
<path d="M13.4258 31.5332V43.0043" stroke="white" stroke-miterlimit="10" stroke-linecap="round" stroke-linejoin="round"/>
<path d="M17.4844 31.5332V43.0043" stroke="white" stroke-miterlimit="10" stroke-linecap="round" stroke-linejoin="round"/>
<path d="M21.543 31.5332V43.0043" stroke="white" stroke-miterlimit="10" stroke-linecap="round" stroke-linejoin="round"/>
<path d="M25.6016 31.5332V43.0043" stroke="white" stroke-miterlimit="10" stroke-linecap="round" stroke-linejoin="round"/>
<path d="M89.6641 31.5332V43.0043" stroke="white" stroke-miterlimit="10" stroke-linecap="round" stroke-linejoin="round"/>
<path d="M93.7227 31.5332V43.0043" stroke="white" stroke-miterlimit="10" stroke-linecap="round" stroke-linejoin="round"/>
<path d="M97.7832 31.5332V43.0043" stroke="white" stroke-miterlimit="10" stroke-linecap="round" stroke-linejoin="round"/>
<path d="M101.842 31.5332V43.0043" stroke="white" stroke-miterlimit="10" stroke-linecap="round" stroke-linejoin="round"/>
<path d="M105.9 31.5332V43.0043" stroke="white" stroke-miterlimit="10" stroke-linecap="round" stroke-linejoin="round"/>
<path d="M109.961 31.5332V43.0043" stroke="white" stroke-miterlimit="10" stroke-linecap="round" stroke-linejoin="round"/>
</svg>
