<svg width="290" height="306" viewBox="0 0 290 306" fill="none" xmlns="http://www.w3.org/2000/svg">
<path d="M25.7581 5.38675L31.1044 0.391773L54.6382 25.5808L49.2919 30.5758L40.5192 21.1861L15.1954 44.8457L9.20698 38.4362L34.5308 14.7765L25.7581 5.38675ZM27.8437 58.3837L58.5138 29.7291L64.5722 36.2135L51.9177 48.0364L64.2163 61.2L76.8707 49.3771L82.9151 55.8466L52.2449 84.5013L46.2006 78.0318L58.87 66.1949L46.5714 53.0313L33.902 64.8682L27.8437 58.3837ZM93.9684 67.6774L63.2983 96.332L57.2399 89.8476L87.91 61.1929L93.9684 67.6774ZM105.677 97.8914C106.773 96.6429 107.231 95.252 107.051 93.7185C106.871 92.185 106.054 90.6395 104.599 89.0821C103.61 88.0238 102.625 87.2702 101.645 86.8212C100.674 86.3629 99.7477 86.1815 98.8647 86.2772C97.9911 86.3829 97.2249 86.7435 96.5659 87.3591C95.9982 87.8522 95.6262 88.4147 95.4501 89.0468C95.2833 89.6888 95.26 90.3743 95.3802 91.1034C95.5104 91.8232 95.7409 92.5802 96.0716 93.3745C96.4122 94.1594 96.8202 94.9563 97.2954 95.7651L99.2109 99.1362C100.161 100.754 100.909 102.355 101.455 103.94C102 105.524 102.291 107.066 102.327 108.566C102.363 110.065 102.097 111.502 101.528 112.874C100.969 114.257 100.055 115.55 98.7863 116.754C96.9001 118.498 94.825 119.539 92.5611 119.878C90.3165 120.217 87.9847 119.853 85.5656 118.785C83.1658 117.717 80.7999 115.935 78.468 113.439C76.1548 110.963 74.5194 108.452 73.5618 105.907C72.6136 103.371 72.4029 100.894 72.9298 98.4754C73.4759 96.0579 74.8289 93.7935 76.9886 91.6821L82.8511 97.9569C81.8881 98.9876 81.3046 100.084 81.1008 101.247C80.9163 102.41 81.0597 103.595 81.5311 104.8C82.0218 106.005 82.7895 107.167 83.8342 108.286C84.8603 109.384 85.9108 110.188 86.9858 110.698C88.0702 111.218 89.1068 111.437 90.0956 111.355C91.0844 111.272 91.9482 110.886 92.687 110.196C93.3759 109.552 93.7637 108.807 93.8505 107.959C93.9467 107.121 93.7957 106.159 93.3976 105.072C93.0088 103.996 92.4269 102.773 91.6517 101.402L89.3703 97.2794C87.5834 94.106 86.6592 91.1455 86.5979 88.398C86.5366 85.6505 87.6437 83.2231 89.9194 81.1157C91.767 79.3708 93.8511 78.3492 96.1716 78.051C98.5015 77.7629 100.877 78.1336 103.297 79.1631C105.717 80.1927 107.972 81.8257 110.062 84.0621C112.188 86.3384 113.655 88.6889 114.462 91.1137C115.279 93.5485 115.436 95.8884 114.934 98.1334C114.433 100.378 113.282 102.369 111.483 104.106L105.677 97.8914ZM139.948 116.891L109.278 145.546L103.22 139.061L133.89 110.407L139.948 116.891ZM151.656 147.105C152.753 145.857 153.211 144.466 153.031 142.932C152.851 141.399 152.033 139.853 150.578 138.296C149.59 137.238 148.605 136.484 147.624 136.035C146.654 135.577 145.727 135.395 144.844 135.491C143.971 135.597 143.205 135.957 142.546 136.573C141.978 137.066 141.606 137.628 141.43 138.26C141.263 138.902 141.24 139.588 141.36 140.317C141.49 141.037 141.721 141.794 142.051 142.588C142.392 143.373 142.8 144.17 143.275 144.979L145.191 148.35C146.141 149.968 146.889 151.569 147.434 153.153C147.98 154.738 148.271 156.28 148.307 157.78C148.343 159.279 148.077 160.715 147.508 162.088C146.949 163.471 146.035 164.764 144.766 165.968C142.88 167.712 140.805 168.753 138.541 169.091C136.296 169.431 133.964 169.067 131.545 167.998C129.145 166.931 126.78 165.149 124.448 162.653C122.134 160.177 120.499 157.666 119.542 155.12C118.593 152.584 118.383 150.107 118.909 147.689C119.456 145.272 120.809 143.007 122.968 140.896L128.831 147.171C127.868 148.201 127.284 149.298 127.08 150.461C126.896 151.624 127.039 152.808 127.511 154.013C128.002 155.219 128.769 156.381 129.814 157.499C130.84 158.597 131.89 159.402 132.966 159.912C134.05 160.432 135.086 160.651 136.075 160.569C137.064 160.486 137.928 160.1 138.667 159.41C139.356 158.766 139.743 158.02 139.83 157.173C139.926 156.335 139.775 155.373 139.377 154.286C138.989 153.21 138.407 151.986 137.631 150.616L135.35 146.493C133.563 143.32 132.639 140.359 132.578 137.612C132.516 134.864 133.623 132.437 135.899 130.329C137.747 128.584 139.831 127.563 142.151 127.265C144.481 126.977 146.856 127.347 149.277 128.377C151.697 129.406 153.952 131.039 156.041 133.276C158.168 135.552 159.635 137.903 160.442 140.327C161.258 142.762 161.416 145.102 160.914 147.347C160.412 149.592 159.262 151.583 157.463 153.32L151.656 147.105ZM194.415 196.713L188.286 190.154C189.023 189.241 189.548 188.292 189.862 187.307C190.186 186.313 190.312 185.307 190.24 184.29C190.168 183.272 189.903 182.268 189.443 181.276C188.993 180.294 188.358 179.363 187.537 178.485C186.054 176.897 184.368 175.883 182.478 175.442C180.599 174.991 178.607 175.141 176.504 175.891C174.41 176.632 172.299 177.996 170.173 179.983C167.987 182.026 166.453 184.066 165.571 186.105C164.699 188.154 164.434 190.122 164.776 192.009C165.118 193.896 166.012 195.613 167.458 197.16C168.269 198.029 169.135 198.725 170.055 199.25C170.984 199.784 171.939 200.135 172.919 200.304C173.909 200.463 174.901 200.434 175.895 200.217C176.897 200.009 177.878 199.598 178.837 198.983L184.935 205.57C183.369 206.715 181.615 207.56 179.672 208.103C177.75 208.646 175.742 208.83 173.651 208.652C171.578 208.475 169.51 207.883 167.447 206.875C165.403 205.868 163.462 204.381 161.624 202.414C159.068 199.679 157.402 196.655 156.625 193.341C155.858 190.038 156.064 186.667 157.244 183.227C158.434 179.797 160.696 176.524 164.031 173.409C167.375 170.284 170.808 168.254 174.33 167.32C177.851 166.386 181.233 166.424 184.476 167.433C187.729 168.433 190.615 170.281 193.133 172.976C194.793 174.753 196.083 176.634 197.001 178.618C197.929 180.612 198.464 182.645 198.607 184.719C198.759 186.783 198.491 188.828 197.804 190.854C197.126 192.89 195.996 194.843 194.415 196.713ZM220.494 233.843C217.149 236.968 213.711 238.992 210.18 239.916C206.659 240.85 203.263 240.807 199.991 239.787C196.739 238.768 193.849 236.906 191.321 234.2C188.775 231.475 187.108 228.45 186.322 225.127C185.536 221.804 185.729 218.418 186.9 214.968C188.07 211.518 190.323 208.235 193.658 205.119C197.002 201.995 200.435 199.965 203.957 199.031C207.478 198.097 210.865 198.14 214.117 199.159C217.379 200.169 220.284 202.036 222.83 204.762C225.358 207.468 227.015 210.482 227.801 213.805C228.606 217.129 228.424 220.516 227.253 223.966C226.091 227.426 223.838 230.718 220.494 233.843ZM214.351 227.268C216.518 225.244 218.042 223.213 218.923 221.174C219.813 219.145 220.097 217.188 219.775 215.301C219.452 213.415 218.559 211.688 217.094 210.121C215.63 208.553 213.968 207.545 212.108 207.095C210.247 206.645 208.27 206.79 206.177 207.531C204.092 208.282 201.967 209.67 199.8 211.694C197.634 213.718 196.105 215.744 195.214 217.773C194.333 219.812 194.054 221.774 194.376 223.661C194.699 225.547 195.592 227.274 197.057 228.841C198.521 230.409 200.184 231.418 202.044 231.867C203.904 232.317 205.876 232.167 207.961 231.416C210.055 230.675 212.185 229.293 214.351 227.268ZM251.313 266.83C247.969 269.955 244.531 271.98 241 272.904C237.479 273.838 234.082 273.795 230.811 272.775C227.559 271.756 224.669 269.893 222.141 267.188C219.595 264.462 217.928 261.438 217.142 258.115C216.356 254.792 216.548 251.405 217.719 247.955C218.89 244.505 221.143 241.223 224.478 238.107C227.822 234.982 231.255 232.953 234.777 232.019C238.298 231.085 241.685 231.127 244.937 232.147C248.199 233.156 251.103 235.024 253.65 237.75C256.178 240.455 257.835 243.47 258.621 246.793C259.426 250.116 259.243 253.503 258.073 256.953C256.911 260.413 254.658 263.706 251.313 266.83ZM245.171 260.256C247.338 258.232 248.861 256.201 249.743 254.162C250.633 252.133 250.917 250.175 250.595 248.289C250.272 246.403 249.379 244.676 247.914 243.108C246.45 241.541 244.787 240.532 242.927 240.082C241.067 239.633 239.09 239.778 236.996 240.519C234.912 241.27 232.786 242.657 230.62 244.681C228.453 246.705 226.925 248.732 226.034 250.761C225.153 252.8 224.874 254.762 225.196 256.648C225.519 258.535 226.412 260.262 227.877 261.829C229.341 263.397 231.003 264.405 232.864 264.855C234.724 265.305 236.696 265.154 238.781 264.404C240.874 263.663 243.005 262.28 245.171 260.256ZM240.466 285.961L271.136 257.306L277.195 263.791L251.871 287.451L264.155 300.599L258.809 305.594L240.466 285.961Z" fill="black"/>
</svg>
