<svg width="119" height="92" viewBox="0 0 119 92" fill="none" xmlns="http://www.w3.org/2000/svg">
<path d="M44.925 53.9661C47.1366 57.9841 48.2566 61.8216 48.2848 65.4787C48.325 69.1292 47.4471 72.4176 45.6511 75.3442C43.8604 78.2521 41.3399 80.6006 38.0895 82.3897C34.8151 84.1921 31.4672 85.066 28.0458 85.0113C24.6245 84.9567 21.3824 83.936 18.3197 81.9493C15.257 79.9625 12.6231 76.9661 10.418 72.9601C8.20632 68.9421 7.08038 65.1078 7.04016 61.4574C6.99993 57.8069 7.87516 54.5277 9.66582 51.6198C11.4499 48.6999 13.9791 46.3388 17.2535 44.5364C20.5039 42.7473 23.8398 41.88 27.2611 41.9347C30.6879 41.9707 33.9326 42.9821 36.9954 44.9688C40.0701 46.949 42.7133 49.9481 44.925 53.9661ZM37.0269 58.3135C35.5942 55.7108 33.9962 53.7304 32.2329 52.3725C30.4816 51.0079 28.6501 50.25 26.7385 50.0989C24.8268 49.9478 22.9294 50.3905 21.0464 51.427C19.1633 52.4635 17.7743 53.8298 16.8793 55.5258C15.9844 57.2218 15.6389 59.1779 15.843 61.3941C16.0591 63.6038 16.8835 66.0099 18.3161 68.6127C19.7487 71.2154 21.3407 73.199 23.092 74.5636C24.8554 75.9216 26.6928 76.6761 28.6045 76.8273C30.5162 76.9784 32.4135 76.5357 34.2966 75.4991C36.1797 74.4626 37.5687 73.0964 38.4636 71.4004C39.3586 69.7044 39.698 67.7516 39.4819 65.542C39.2779 63.3257 38.4595 60.9162 37.0269 58.3135ZM60.8363 69.2126L40.5549 32.3668L48.3451 28.0788L57.2875 44.3247L57.7733 44.0574L62.0903 20.5129L71.4277 15.3732L66.8355 39.3973L91.871 52.1299L82.5516 57.2596L64.1202 47.6667L62.8629 54.4537L68.6265 64.9246L60.8363 69.2126ZM96.1264 35.394L95.7897 34.7823C94.6464 32.6768 93.9113 30.9013 93.5845 29.4558C93.2697 28.0038 93.2549 26.6992 93.54 25.542C93.8251 24.3849 94.2938 23.2205 94.946 22.0488C95.4255 21.1597 95.8172 20.2956 96.121 19.4563C96.4249 18.6171 96.579 17.7899 96.5836 16.9747C96.5815 16.1476 96.3659 15.3442 95.9367 14.5646C95.4812 13.737 94.8839 13.1203 94.1448 12.7145C93.4057 12.3086 92.6078 12.1227 91.7513 12.1565C90.9068 12.1838 90.0827 12.4186 89.2791 12.861C88.4995 13.2901 87.8576 13.87 87.3534 14.6008C86.8426 15.3195 86.5502 16.1369 86.4761 17.0528C86.3954 17.9568 86.6078 18.9104 87.1132 19.9137L79.7728 23.9542C78.5124 21.5223 77.9987 19.2264 78.2319 17.0664C78.4585 14.8944 79.2601 12.9294 80.6367 11.1715C82.0067 9.40159 83.7771 7.91915 85.9481 6.72418C88.3349 5.41038 90.6637 4.64423 92.9345 4.42573C95.1988 4.19524 97.2619 4.53643 99.1241 5.44933C100.986 6.36221 102.495 7.86814 103.65 9.9671C104.423 11.3704 104.875 12.7465 105.008 14.0955C105.147 15.4258 105.033 16.7386 104.668 18.0337C104.296 19.3168 103.731 20.6045 102.973 21.8968C102.336 22.982 101.88 23.9989 101.605 24.9473C101.342 25.8891 101.282 26.8443 101.424 27.813C101.579 28.775 101.973 29.8471 102.608 31.0291L102.945 31.6408L96.1264 35.394ZM106.027 44.9475C104.827 45.6077 103.571 45.7524 102.257 45.3816C100.949 44.9921 99.9736 44.2004 99.332 43.0064C98.673 41.8376 98.5322 40.6023 98.9097 39.3006C99.2991 37.9922 100.094 37.008 101.293 36.3478C102.432 35.7206 103.665 35.5891 104.991 35.9534C106.316 36.3176 107.309 37.0841 107.968 38.2529C108.391 39.0512 108.581 39.8923 108.536 40.7765C108.497 41.642 108.262 42.4509 107.833 43.2033C107.396 43.9436 106.794 44.525 106.027 44.9475Z" fill="black"/>
</svg>
