<svg width="318" height="276" viewBox="0 0 318 276" fill="none" xmlns="http://www.w3.org/2000/svg">
<path d="M5.06325 248.912L0.368222 243.3L26.8114 221.179L31.5064 226.792L21.6492 235.037L43.8881 261.622L37.1594 267.251L14.9205 240.666L5.06325 248.912ZM58.1001 249.733L31.1661 217.536L37.9734 211.842L49.0863 225.126L62.9053 213.566L51.7924 200.282L58.584 194.6L85.518 226.797L78.7264 232.479L67.6003 219.179L53.7814 230.739L64.9074 244.039L58.1001 249.733ZM71.0038 184.211L97.9378 216.408L91.1305 222.102L64.1965 189.905L71.0038 184.211ZM101.817 174.174C100.63 173.011 99.2664 172.477 97.7252 172.573C96.184 172.669 94.5959 173.4 92.9609 174.768C91.8499 175.698 91.0434 176.639 90.5413 177.594C90.0305 178.538 89.7987 179.453 89.8458 180.34C89.9035 181.218 90.2216 182.003 90.8003 182.695C91.2615 183.289 91.8029 183.691 92.4244 183.902C93.0564 184.104 93.7397 184.164 94.4743 184.084C95.2002 183.994 95.9688 183.805 96.7801 183.518C97.5826 183.221 98.4007 182.858 99.2344 182.427L102.706 180.699C104.373 179.839 106.013 179.18 107.625 178.722C109.238 178.264 110.793 178.058 112.293 178.104C113.792 178.15 115.212 178.495 116.551 179.138C117.902 179.772 119.143 180.756 120.276 182.088C121.914 184.068 122.84 186.197 123.054 188.476C123.27 190.736 122.778 193.045 121.579 195.402C120.381 197.74 118.472 200.005 115.852 202.197C113.253 204.371 110.656 205.866 108.061 206.683C105.477 207.491 102.992 207.566 100.606 206.907C98.2217 206.229 96.0346 204.754 94.0445 202.482L100.632 196.971C101.608 197.99 102.671 198.632 103.821 198.899C104.973 199.148 106.163 199.069 107.393 198.664C108.623 198.24 109.826 197.538 111 196.556C112.153 195.591 113.013 194.586 113.582 193.541C114.16 192.486 114.436 191.463 114.408 190.471C114.38 189.479 114.041 188.595 113.392 187.82C112.787 187.097 112.064 186.669 111.222 186.535C110.391 186.393 109.422 186.492 108.315 186.83C107.219 187.159 105.965 187.673 104.555 188.372L100.312 190.424C97.0454 192.035 94.0385 192.795 91.2915 192.706C88.5445 192.617 86.1812 191.378 84.2014 188.99C82.5602 187.05 81.6542 184.912 81.4836 182.579C81.3235 180.236 81.8238 177.885 82.9846 175.524C84.1453 173.164 85.8996 171.002 88.2473 169.038C90.6369 167.039 93.0645 165.703 95.5301 165.03C98.0062 164.348 100.351 164.319 102.566 164.943C104.78 165.567 106.705 166.825 108.341 168.716L101.817 174.174ZM122.668 140.992L149.602 173.189L142.794 178.884L115.86 146.687L122.668 140.992ZM153.481 130.955C152.294 129.793 150.93 129.259 149.389 129.354C147.848 129.45 146.26 130.182 144.625 131.55C143.514 132.479 142.707 133.421 142.205 134.375C141.694 135.319 141.463 136.235 141.51 137.122C141.567 138 141.886 138.785 142.464 139.477C142.925 140.07 143.467 140.473 144.088 140.683C144.72 140.885 145.404 140.946 146.138 140.866C146.864 140.775 147.633 140.586 148.444 140.3C149.246 140.003 150.065 139.639 150.898 139.209L154.37 137.481C156.037 136.62 157.677 135.961 159.289 135.503C160.901 135.045 162.457 134.839 163.957 134.885C165.456 134.932 166.876 135.276 168.215 135.919C169.566 136.553 170.807 137.537 171.94 138.87C173.577 140.849 174.504 142.978 174.718 145.257C174.934 147.517 174.442 149.826 173.243 152.183C172.045 154.521 170.136 156.786 167.516 158.978C164.917 161.152 162.32 162.648 159.725 163.465C157.141 164.272 154.656 164.347 152.27 163.689C149.886 163.011 147.699 161.536 145.708 159.263L152.296 153.753C153.272 154.771 154.335 155.414 155.485 155.681C156.637 155.929 157.827 155.851 159.057 155.446C160.287 155.022 161.49 154.319 162.664 153.337C163.817 152.372 164.677 151.367 165.246 150.322C165.824 149.268 166.1 148.244 166.072 147.253C166.044 146.261 165.705 145.377 165.056 144.601C164.451 143.878 163.728 143.45 162.886 143.317C162.055 143.175 161.086 143.273 159.979 143.611C158.883 143.94 157.629 144.454 156.219 145.153L151.976 147.206C148.709 148.816 145.702 149.577 142.955 149.487C140.208 149.398 137.845 148.16 135.865 145.772C134.224 143.831 133.318 141.694 133.148 139.36C132.987 137.018 133.488 134.666 134.649 132.306C135.809 129.945 137.564 127.783 139.911 125.819C142.301 123.82 144.728 122.484 147.194 121.811C149.67 121.129 152.015 121.1 154.23 121.724C156.444 122.348 158.369 123.606 160.005 125.498L153.481 130.955ZM205.362 90.9755L198.476 96.7358C197.605 95.9502 196.687 95.3737 195.72 95.0063C194.745 94.6285 193.747 94.4476 192.727 94.4635C191.707 94.4794 190.69 94.6895 189.674 95.0938C188.669 95.4894 187.705 96.0729 186.782 96.8445C185.116 98.2385 184.011 99.8668 183.467 101.729C182.914 103.581 182.954 105.579 183.588 107.721C184.213 109.852 185.46 112.034 187.327 114.266C189.247 116.562 191.201 118.205 193.189 119.197C195.187 120.18 197.137 120.553 199.04 120.314C200.943 120.076 202.707 119.278 204.332 117.919C205.244 117.156 205.986 116.33 206.56 115.44C207.145 114.541 207.548 113.607 207.77 112.638C207.984 111.657 208.009 110.665 207.846 109.661C207.694 108.649 207.337 107.647 206.775 106.656L213.687 100.927C214.745 102.554 215.492 104.352 215.928 106.321C216.365 108.271 216.438 110.286 216.147 112.365C215.857 114.424 215.152 116.457 214.032 118.462C212.915 120.448 211.323 122.305 209.259 124.032C206.387 126.435 203.276 127.933 199.925 128.527C196.584 129.112 193.228 128.722 189.858 127.355C186.498 125.979 183.354 123.54 180.425 120.04C177.488 116.529 175.65 112.989 174.91 109.422C174.17 105.854 174.393 102.479 175.578 99.2958C176.755 96.1023 178.758 93.322 181.588 90.9548C183.454 89.3941 185.402 88.2095 187.434 87.4009C189.476 86.5835 191.536 86.1606 193.614 86.1322C195.684 86.0933 197.712 86.4726 199.697 87.2702C201.693 88.0589 203.581 89.2941 205.362 90.9755ZM243.868 66.9676C246.806 70.4787 248.639 74.0225 249.368 77.599C250.108 81.1667 249.879 84.556 248.681 87.767C247.485 90.9587 245.467 93.7425 242.627 96.1185C239.766 98.5121 236.654 100.01 233.293 100.613C229.931 101.216 226.56 100.839 223.179 99.4802C219.798 98.122 216.643 95.6925 213.715 92.1919C210.778 88.6808 208.94 85.1415 208.2 81.5737C207.46 78.006 207.688 74.6263 208.884 71.4346C210.071 68.2324 212.095 65.4346 214.957 63.041C217.797 60.665 220.898 59.1755 224.259 58.5726C227.623 57.9504 230.995 58.3185 234.376 59.6767C237.767 61.0263 240.931 63.4566 243.868 66.9676ZM236.967 72.7411C235.064 70.4667 233.119 68.8337 231.132 67.8419C229.154 66.8414 227.215 66.4506 225.314 66.6693C223.412 66.8881 221.639 67.6858 219.994 69.0623C218.348 70.4388 217.25 72.0434 216.699 73.8763C216.147 75.7091 216.184 77.6913 216.81 79.8228C217.445 81.9456 218.714 84.1441 220.617 86.4185C222.519 88.6928 224.459 90.3303 226.436 91.3308C228.424 92.3225 230.368 92.709 232.27 92.4902C234.171 92.2714 235.945 91.4738 237.59 90.0973C239.236 88.7208 240.334 87.1161 240.885 85.2833C241.436 83.4505 241.394 81.4727 240.758 79.3499C240.133 77.2184 238.869 75.0154 236.967 72.7411ZM278.498 37.9985C281.436 41.5096 283.269 45.0534 283.998 48.6298C284.738 52.1975 284.509 55.5869 283.311 58.7978C282.115 61.9895 280.097 64.7734 277.257 67.1494C274.396 69.5429 271.284 71.0412 267.923 71.6441C264.561 72.2471 261.19 71.8694 257.809 70.5111C254.428 69.1528 251.273 66.7234 248.345 63.2228C245.408 59.7117 243.57 56.1723 242.83 52.6046C242.09 49.0369 242.318 45.6572 243.514 42.4655C244.701 39.2633 246.725 36.4654 249.587 34.0719C252.427 31.6959 255.528 30.2064 258.889 29.6035C262.253 28.9813 265.625 29.3493 269.006 30.7076C272.397 32.0571 275.561 34.4874 278.498 37.9985ZM271.597 43.7719C269.694 41.4976 267.749 39.8646 265.762 38.8728C263.784 37.8723 261.845 37.4814 259.944 37.7002C258.042 37.919 256.269 38.7166 254.624 40.0931C252.978 41.4696 251.88 43.0743 251.329 44.9071C250.777 46.74 250.814 48.7221 251.439 50.8537C252.075 52.9765 253.344 55.175 255.247 57.4493C257.149 59.7237 259.089 61.3611 261.066 62.3616C263.054 63.3534 264.998 63.7399 266.9 63.5211C268.801 63.3023 270.575 62.5047 272.22 61.1282C273.866 59.7516 274.964 58.147 275.515 56.3142C276.066 54.4813 276.024 52.5035 275.388 50.3808C274.763 48.2492 273.499 46.0463 271.597 43.7719ZM297.008 49.8788L270.074 17.6816L276.881 11.9871L299.12 38.5717L312.924 27.0249L317.619 32.6373L297.008 49.8788Z" fill="black"/>
</svg>
