<svg width="300" height="85" viewBox="0 0 300 85" fill="none" xmlns="http://www.w3.org/2000/svg">
<path d="M7.21655 20.3288C5.62088 20.3288 4.44729 19.6699 3.87079 18.4346H3.67519V20.1435H1.95598V4.58826H3.73696V10.7033H3.92226C4.41641 9.47822 5.60029 8.78848 7.21655 8.78848C9.80051 8.78848 11.4888 10.6518 11.4888 13.5137V15.5932C11.4888 18.4655 9.80051 20.3288 7.21655 20.3288ZM6.70182 18.7331C8.55486 18.7331 9.72845 17.4051 9.72845 15.3462V13.7402C9.72845 11.6813 8.55486 10.3636 6.70182 10.3636C4.86937 10.3636 3.69578 11.6813 3.69578 13.7402V15.3462C3.69578 17.4154 4.86937 18.7331 6.70182 18.7331ZM15.4832 11.9901C15.4832 10.0547 17.1303 8.7576 19.5907 8.7576C21.9173 8.7576 23.4924 9.92089 23.6983 11.7842H22.01C21.8041 10.8062 20.8673 10.2091 19.5598 10.2091C18.1392 10.2091 17.223 10.868 17.223 11.8872C17.223 12.7416 17.7995 13.2255 19.1995 13.5343L20.7746 13.8946C22.9468 14.3888 23.9351 15.3359 23.9351 16.9521C23.9351 19.0111 22.2159 20.3494 19.5701 20.3494C17.0377 20.3494 15.3596 19.1655 15.164 17.2507H16.945C17.2024 18.2802 18.1907 18.8772 19.6319 18.8772C21.1555 18.8772 22.1232 18.1875 22.1232 17.1169C22.1232 16.2315 21.5776 15.758 20.1569 15.4388L18.4995 15.0579C16.4817 14.5947 15.4832 13.5755 15.4832 11.9901ZM30.7193 13.9873L35.5886 8.97378H37.7093L33.3753 13.4005L38.0182 20.1435H35.9386L32.1296 14.5947L30.5854 16.0771V20.1435H28.8353V4.58826H30.5854V13.9873H30.7193ZM42.486 24.1172C42.2287 24.1172 41.8889 24.1069 41.7345 24.0863V22.5524C41.8684 22.5833 42.1875 22.5936 42.3522 22.5936C43.4023 22.5936 43.9788 22.1201 44.442 20.8229L44.6376 20.2155L40.5301 8.97378H42.4346L45.5641 18.3213H45.698L48.8173 8.97378H50.6806L46.4701 20.5553C45.4921 23.3039 44.5553 24.1172 42.486 24.1172ZM64.0945 14.3682H53.2028V12.7416H64.0945V14.3682ZM67.6153 11.9901C67.6153 10.0547 69.2624 8.7576 71.7229 8.7576C74.0495 8.7576 75.6245 9.92089 75.8304 11.7842H74.1421C73.9362 10.8062 72.9994 10.2091 71.692 10.2091C70.2713 10.2091 69.3551 10.868 69.3551 11.8872C69.3551 12.7416 69.9316 13.2255 71.3317 13.5343L72.9067 13.8946C75.0789 14.3888 76.0672 15.3359 76.0672 16.9521C76.0672 19.0111 74.348 20.3494 71.7023 20.3494C69.1698 20.3494 67.4918 19.1655 67.2962 17.2507H69.0771C69.3345 18.2802 70.3228 18.8772 71.764 18.8772C73.2877 18.8772 74.2553 18.1875 74.2553 17.1169C74.2553 16.2315 73.7097 15.758 72.2891 15.4388L70.6316 15.0579C68.6139 14.5947 67.6153 13.5755 67.6153 11.9901ZM84.7147 20.3494C81.7601 20.3494 79.8762 18.4243 79.8762 15.4079V13.7196C79.8762 10.7033 81.7601 8.77818 84.7147 8.77818C87.6693 8.77818 89.5532 10.7033 89.5532 13.7196V15.4079C89.5532 18.4243 87.6693 20.3494 84.7147 20.3494ZM84.7147 10.3224C82.7999 10.3224 81.6057 11.6813 81.6057 13.874V15.2432C81.6057 17.4463 82.7999 18.7949 84.7147 18.7949C86.6295 18.7949 87.8237 17.4463 87.8237 15.2432V13.874C87.8237 11.6813 86.6295 10.3224 84.7147 10.3224ZM102.401 12.4534H100.671C100.455 11.146 99.364 10.3224 97.9228 10.3224C95.9771 10.3224 94.8961 11.6504 94.8961 14.049V15.0579C94.8961 17.4566 95.9771 18.7743 97.9228 18.7743C99.364 18.7743 100.455 17.961 100.671 16.6845H102.401C102.123 18.9596 100.424 20.3494 97.9536 20.3494C94.9167 20.3494 93.146 18.486 93.146 15.2844V13.8226C93.146 10.6209 94.9167 8.7576 97.9536 8.7576C100.424 8.7576 102.113 10.1577 102.401 12.4534ZM110.976 6.2354C110.153 6.2354 109.525 5.61773 109.525 4.79415C109.525 3.98088 110.153 3.3632 110.976 3.3632C111.8 3.3632 112.428 3.98088 112.428 4.79415C112.428 5.61773 111.8 6.2354 110.976 6.2354ZM115.66 20.1435H106.406V18.6919H110.235V10.4253H106.436V8.97378H111.965V18.6919H115.66V20.1435ZM122.681 20.3391C120.55 20.3391 119.13 19.0008 119.13 16.9727C119.13 14.9962 120.55 13.8226 123.093 13.6887L126.161 13.5343V12.5254C126.161 11.1254 125.307 10.3533 123.752 10.3533C122.465 10.3533 121.559 10.8989 121.271 11.8563H119.552C119.758 10.065 121.487 8.83995 123.773 8.83995C126.398 8.83995 127.901 10.1783 127.901 12.5048V20.1538H126.233V18.4757H126.058C125.523 19.6699 124.308 20.3391 122.681 20.3391ZM123.186 18.8052C124.874 18.8052 126.161 17.6831 126.161 16.1903V14.8726L123.289 15.0065C121.724 15.0785 120.9 15.7477 120.9 16.911C120.9 18.0846 121.775 18.8052 123.186 18.8052ZM141.727 20.1435H132.472V18.6919H136.291V6.03981H132.503V4.58826H138.041V18.6919H141.727V20.1435ZM155.326 14.3682H144.434V12.7416H155.326V14.3682ZM167.566 12.4534H165.837C165.62 11.146 164.529 10.3224 163.088 10.3224C161.142 10.3224 160.061 11.6504 160.061 14.049V15.0579C160.061 17.4566 161.142 18.7743 163.088 18.7743C164.529 18.7743 165.62 17.961 165.837 16.6845H167.566C167.288 18.9596 165.59 20.3494 163.119 20.3494C160.082 20.3494 158.311 18.486 158.311 15.2844V13.8226C158.311 10.6209 160.082 8.7576 163.119 8.7576C165.59 8.7576 167.278 10.1577 167.566 12.4534ZM175.246 20.3288C172.662 20.3288 170.974 18.4655 170.974 15.5932V13.5137C170.974 10.6518 172.662 8.78848 175.246 8.78848C176.862 8.78848 178.056 9.47822 178.54 10.7033H178.726V4.58826H180.506V20.1435H178.787V18.4346H178.592C178.015 19.6699 176.842 20.3288 175.246 20.3288ZM175.761 18.7331C177.593 18.7331 178.777 17.4154 178.777 15.3462V13.7402C178.777 11.6813 177.593 10.3636 175.761 10.3636C173.918 10.3636 172.734 11.6813 172.734 13.7402V15.3462C172.734 17.4051 173.918 18.7331 175.761 18.7331ZM193.859 20.1435H184.604V18.6919H188.423V6.03981H184.635V4.58826H190.173V18.6919H193.859V20.1435ZM202.208 6.2354C201.384 6.2354 200.756 5.61773 200.756 4.79415C200.756 3.98088 201.384 3.3632 202.208 3.3632C203.031 3.3632 203.659 3.98088 203.659 4.79415C203.659 5.61773 203.031 6.2354 202.208 6.2354ZM206.892 20.1435H197.637V18.6919H201.466V10.4253H197.668V8.97378H203.196V18.6919H206.892V20.1435ZM210.31 9.46793C210.31 6.85308 212.245 4.97946 214.952 4.97946C217.68 4.97946 219.554 6.66778 219.554 9.14879C219.554 10.693 218.854 11.9283 216.486 14.5123L212.986 18.3213V18.4963H219.791V20.1435H210.392V18.8875L215.416 13.2975C217.3 11.1871 217.753 10.3944 217.753 9.22085C217.753 7.62518 216.63 6.57513 214.901 6.57513C213.192 6.57513 212.06 7.71784 212.06 9.46793V9.52969H210.31V9.46793ZM233.524 14.3682H222.632V12.7416H233.524V14.3682ZM240.411 8.78848C242.007 8.78848 243.17 9.44734 243.757 10.6827H243.942V8.97378H245.672V23.9113H243.891V18.414H243.695C243.211 19.639 242.027 20.3288 240.411 20.3288C237.827 20.3288 236.139 18.4655 236.139 15.6035V13.524C236.139 10.6518 237.827 8.78848 240.411 8.78848ZM240.916 10.3944C239.073 10.3944 237.899 11.7122 237.899 13.7711V15.3771C237.899 17.436 239.073 18.764 240.916 18.764C242.758 18.764 243.932 17.4463 243.932 15.3771V13.7711C243.932 11.7122 242.758 10.3944 240.916 10.3944ZM255.884 20.1435V17.0036H249.11V15.5315L254.154 5.2883H256.007L251.035 15.2947V15.4285H255.905V11.1871H257.552V15.4079H259.817V17.0036H257.541V20.1435H255.884ZM266.045 20.3391C263.914 20.3391 262.493 19.0008 262.493 16.9727C262.493 14.9962 263.914 13.8226 266.457 13.6887L269.524 13.5343V12.5254C269.524 11.1254 268.67 10.3533 267.115 10.3533C265.829 10.3533 264.923 10.8989 264.634 11.8563H262.915C263.121 10.065 264.851 8.83995 267.136 8.83995C269.761 8.83995 271.264 10.1783 271.264 12.5048V20.1538H269.596V18.4757H269.421C268.886 19.6699 267.671 20.3391 266.045 20.3391ZM266.549 18.8052C268.238 18.8052 269.524 17.6831 269.524 16.1903V14.8726L266.652 15.0065C265.087 15.0785 264.264 15.7477 264.264 16.911C264.264 18.0846 265.139 18.8052 266.549 18.8052ZM278.347 13.9873L283.216 8.97378H285.337L281.003 13.4005L285.646 20.1435H283.566L279.757 14.5947L278.213 16.0771V20.1435H276.463V4.58826H278.213V13.9873H278.347ZM296.26 17.261H297.958C297.618 19.1037 295.848 20.3494 293.501 20.3494C290.433 20.3494 288.652 18.5066 288.652 15.3256V13.6476C288.652 10.7033 290.536 8.76789 293.377 8.76789C296.28 8.76789 297.989 10.693 297.989 13.9255V15.0167H290.381V15.4697C290.381 17.5183 291.596 18.8361 293.501 18.8361C294.911 18.8361 295.951 18.239 296.26 17.261ZM293.367 10.2709C291.503 10.2709 290.381 11.5474 290.381 13.6887H296.26C296.26 11.5577 295.168 10.2709 293.367 10.2709ZM7.21655 49.3288C5.62088 49.3288 4.44729 48.6699 3.87079 47.4346H3.67519V49.1435H1.95598V33.5883H3.73696V39.7033H3.92226C4.41641 38.4782 5.60029 37.7885 7.21655 37.7885C9.80051 37.7885 11.4888 39.6518 11.4888 42.5137V44.5932C11.4888 47.4655 9.80051 49.3288 7.21655 49.3288ZM6.70182 47.7331C8.55486 47.7331 9.72845 46.4051 9.72845 44.3462V42.7402C9.72845 40.6813 8.55486 39.3636 6.70182 39.3636C4.86937 39.3636 3.69578 40.6813 3.69578 42.7402V44.3462C3.69578 46.4154 4.86937 47.7331 6.70182 47.7331ZM15.4832 40.9901C15.4832 39.0547 17.1303 37.7576 19.5907 37.7576C21.9173 37.7576 23.4924 38.9209 23.6983 40.7842H22.01C21.8041 39.8062 20.8673 39.2091 19.5598 39.2091C18.1392 39.2091 17.223 39.868 17.223 40.8872C17.223 41.7416 17.7995 42.2255 19.1995 42.5343L20.7746 42.8946C22.9468 43.3888 23.9351 44.3359 23.9351 45.9521C23.9351 48.0111 22.2159 49.3494 19.5701 49.3494C17.0377 49.3494 15.3596 48.1655 15.164 46.2507H16.945C17.2024 47.2802 18.1907 47.8772 19.6319 47.8772C21.1555 47.8772 22.1232 47.1875 22.1232 46.1169C22.1232 45.2315 21.5776 44.758 20.1569 44.4388L18.4995 44.0579C16.4817 43.5947 15.4832 42.5755 15.4832 40.9901ZM30.7193 42.9873L35.5886 37.9738H37.7093L33.3753 42.4005L38.0182 49.1435H35.9386L32.1296 43.5947L30.5854 45.0771V49.1435H28.8353V33.5883H30.5854V42.9873H30.7193ZM42.486 53.1172C42.2287 53.1172 41.8889 53.1069 41.7345 53.0863V51.5524C41.8684 51.5833 42.1875 51.5936 42.3522 51.5936C43.4023 51.5936 43.9788 51.1201 44.442 49.8229L44.6376 49.2155L40.5301 37.9738H42.4346L45.5641 47.3213H45.698L48.8173 37.9738H50.6806L46.4701 49.5553C45.4921 52.3039 44.5553 53.1172 42.486 53.1172ZM64.0945 43.3682H53.2028V41.7416H64.0945V43.3682ZM67.6153 40.9901C67.6153 39.0547 69.2624 37.7576 71.7229 37.7576C74.0495 37.7576 75.6245 38.9209 75.8304 40.7842H74.1421C73.9362 39.8062 72.9994 39.2091 71.692 39.2091C70.2713 39.2091 69.3551 39.868 69.3551 40.8872C69.3551 41.7416 69.9316 42.2255 71.3317 42.5343L72.9067 42.8946C75.0789 43.3888 76.0672 44.3359 76.0672 45.9521C76.0672 48.0111 74.348 49.3494 71.7023 49.3494C69.1698 49.3494 67.4918 48.1655 67.2962 46.2507H69.0771C69.3345 47.2802 70.3228 47.8772 71.764 47.8772C73.2877 47.8772 74.2553 47.1875 74.2553 46.1169C74.2553 45.2315 73.7097 44.758 72.2891 44.4388L70.6316 44.0579C68.6139 43.5947 67.6153 42.5755 67.6153 40.9901ZM84.7147 49.3494C81.7601 49.3494 79.8762 47.4243 79.8762 44.4079V42.7196C79.8762 39.7033 81.7601 37.7782 84.7147 37.7782C87.6693 37.7782 89.5532 39.7033 89.5532 42.7196V44.4079C89.5532 47.4243 87.6693 49.3494 84.7147 49.3494ZM84.7147 39.3224C82.7999 39.3224 81.6057 40.6813 81.6057 42.874V44.2432C81.6057 46.4463 82.7999 47.7949 84.7147 47.7949C86.6295 47.7949 87.8237 46.4463 87.8237 44.2432V42.874C87.8237 40.6813 86.6295 39.3224 84.7147 39.3224ZM102.401 41.4534H100.671C100.455 40.146 99.364 39.3224 97.9228 39.3224C95.9771 39.3224 94.8961 40.6504 94.8961 43.049V44.0579C94.8961 46.4566 95.9771 47.7743 97.9228 47.7743C99.364 47.7743 100.455 46.961 100.671 45.6845H102.401C102.123 47.9596 100.424 49.3494 97.9536 49.3494C94.9167 49.3494 93.146 47.486 93.146 44.2844V42.8226C93.146 39.6209 94.9167 37.7576 97.9536 37.7576C100.424 37.7576 102.113 39.1577 102.401 41.4534ZM110.976 35.2354C110.153 35.2354 109.525 34.6177 109.525 33.7942C109.525 32.9809 110.153 32.3632 110.976 32.3632C111.8 32.3632 112.428 32.9809 112.428 33.7942C112.428 34.6177 111.8 35.2354 110.976 35.2354ZM115.66 49.1435H106.406V47.6919H110.235V39.4253H106.436V37.9738H111.965V47.6919H115.66V49.1435ZM122.681 49.3391C120.55 49.3391 119.13 48.0008 119.13 45.9727C119.13 43.9962 120.55 42.8226 123.093 42.6887L126.161 42.5343V41.5254C126.161 40.1254 125.307 39.3533 123.752 39.3533C122.465 39.3533 121.559 39.8989 121.271 40.8563H119.552C119.758 39.065 121.487 37.84 123.773 37.84C126.398 37.84 127.901 39.1783 127.901 41.5048V49.1538H126.233V47.4757H126.058C125.523 48.6699 124.308 49.3391 122.681 49.3391ZM123.186 47.8052C124.874 47.8052 126.161 46.6831 126.161 45.1903V43.8726L123.289 44.0065C121.724 44.0785 120.9 44.7477 120.9 45.911C120.9 47.0846 121.775 47.8052 123.186 47.8052ZM141.727 49.1435H132.472V47.6919H136.291V35.0398H132.503V33.5883H138.041V47.6919H141.727V49.1435ZM155.326 43.3682H144.434V41.7416H155.326V43.3682ZM168.946 37.9738L166.547 49.1435H164.869L162.975 40.4342H162.851L160.957 49.1435H159.279L156.88 37.9738H158.589L160.102 46.9301H160.288L162.089 37.9841H163.736L165.538 46.9301H165.723L167.237 37.9738H168.946ZM174.083 42.9873L178.952 37.9738H181.073L176.739 42.4005L181.382 49.1435H179.302L175.493 43.5947L173.949 45.0771V49.1435H172.199V33.5883H173.949V42.9873H174.083ZM187.074 34.978H188.804V38.0047H193.334V39.4974H188.825V45.7977C188.825 47.0125 189.679 47.6713 191.254 47.6713C191.882 47.6713 193.004 47.6405 193.303 47.6096V49.092C193.025 49.1435 191.666 49.195 191.131 49.195C188.361 49.195 187.074 48.1449 187.074 45.8183V39.4974H184.099V38.0047H187.074V34.978ZM200.365 49.1435V39.4974H197.369V38.0047H200.365V36.8825C200.365 34.7207 201.703 33.7118 204.452 33.7118C205.1 33.7118 206.655 33.7633 207.026 33.8147V35.2457C206.542 35.1942 205.1 35.153 204.472 35.153C202.918 35.153 202.094 35.7295 202.094 36.8517V38.0047H207.026V39.4974H202.115V49.1435H200.365ZM220.429 40.9181V49.1435H218.854V41.4328C218.854 40.0739 218.36 39.3636 217.423 39.3636C216.445 39.3636 215.848 40.218 215.848 41.6078V49.1435H214.283V41.4225C214.283 40.0739 213.789 39.3636 212.842 39.3636C211.854 39.3636 211.236 40.218 211.236 41.6078V49.1435H209.661V37.9738H211.226V39.5489H211.411C211.689 38.4267 212.492 37.7679 213.542 37.7679C214.592 37.7679 215.333 38.4165 215.57 39.518H215.755C216.044 38.4473 216.939 37.7679 218.061 37.7679C219.616 37.7679 220.429 38.8488 220.429 40.9181ZM233.524 43.3682H222.632V41.7416H233.524V43.3682ZM239.248 42.9873L244.117 37.9738H246.238L241.904 42.4005L246.547 49.1435H244.467L240.658 43.5947L239.114 45.0771V49.1435H237.364V33.5883H239.114V42.9873H239.248ZM250.078 40.9901C250.078 39.0547 251.725 37.7576 254.185 37.7576C256.512 37.7576 258.087 38.9209 258.293 40.7842H256.605C256.399 39.8062 255.462 39.2091 254.154 39.2091C252.734 39.2091 251.818 39.868 251.818 40.8872C251.818 41.7416 252.394 42.2255 253.794 42.5343L255.369 42.8946C257.541 43.3888 258.53 44.3359 258.53 45.9521C258.53 48.0111 256.81 49.3494 254.165 49.3494C251.632 49.3494 249.954 48.1655 249.759 46.2507H251.54C251.797 47.2802 252.785 47.8772 254.227 47.8772C255.75 47.8772 256.718 47.1875 256.718 46.1169C256.718 45.2315 256.172 44.758 254.752 44.4388L253.094 44.0579C251.076 43.5947 250.078 42.5755 250.078 40.9901ZM272.057 49.1435H262.802V47.6919H266.621V35.0398H262.833V33.5883H268.371V47.6919H272.057V49.1435ZM275.629 49.1435V33.5883H277.317V39.9504H277.462C278.048 38.5606 279.335 37.7782 281.044 37.7782C283.474 37.7782 284.791 39.24 284.791 41.9063V49.1435H283.041V42.349C283.041 40.3416 282.218 39.3842 280.468 39.3842C278.625 39.3842 277.379 40.671 277.379 42.5755V49.1435H275.629ZM294.983 49.1435V46.0036H288.209V44.5315L293.254 34.2883H295.107L290.134 44.2947V44.4285H295.004V40.1871H296.651V44.4079H298.916V46.0036H296.64V49.1435H294.983ZM7.21655 78.3288C5.62088 78.3288 4.44729 77.6699 3.87079 76.4346H3.67519V78.1435H1.95598V62.5883H3.73696V68.7033H3.92226C4.41641 67.4782 5.60029 66.7885 7.21655 66.7885C9.80051 66.7885 11.4888 68.6518 11.4888 71.5137V73.5932C11.4888 76.4655 9.80051 78.3288 7.21655 78.3288ZM6.70182 76.7331C8.55486 76.7331 9.72845 75.4051 9.72845 73.3462V71.7402C9.72845 69.6813 8.55486 68.3636 6.70182 68.3636C4.86937 68.3636 3.69578 69.6813 3.69578 71.7402V73.3462C3.69578 75.4154 4.86937 76.7331 6.70182 76.7331ZM15.4832 69.9901C15.4832 68.0547 17.1303 66.7576 19.5907 66.7576C21.9173 66.7576 23.4924 67.9209 23.6983 69.7842H22.01C21.8041 68.8062 20.8673 68.2091 19.5598 68.2091C18.1392 68.2091 17.223 68.868 17.223 69.8872C17.223 70.7416 17.7995 71.2255 19.1995 71.5343L20.7746 71.8946C22.9468 72.3888 23.9351 73.3359 23.9351 74.9521C23.9351 77.0111 22.2159 78.3494 19.5701 78.3494C17.0377 78.3494 15.3596 77.1655 15.164 75.2507H16.945C17.2024 76.2802 18.1907 76.8772 19.6319 76.8772C21.1555 76.8772 22.1232 76.1875 22.1232 75.1169C22.1232 74.2315 21.5776 73.758 20.1569 73.4388L18.4995 73.0579C16.4817 72.5947 15.4832 71.5755 15.4832 69.9901ZM30.7193 71.9873L35.5886 66.9738H37.7093L33.3753 71.4005L38.0182 78.1435H35.9386L32.1296 72.5947L30.5854 74.0771V78.1435H28.8353V62.5883H30.5854V71.9873H30.7193ZM42.486 82.1172C42.2287 82.1172 41.8889 82.1069 41.7345 82.0863V80.5524C41.8684 80.5833 42.1875 80.5936 42.3522 80.5936C43.4023 80.5936 43.9788 80.1201 44.442 78.8229L44.6376 78.2155L40.5301 66.9738H42.4346L45.5641 76.3213H45.698L48.8173 66.9738H50.6806L46.4701 78.5553C45.4921 81.3039 44.5553 82.1172 42.486 82.1172ZM64.0945 72.3682H53.2028V70.7416H64.0945V72.3682ZM67.6153 69.9901C67.6153 68.0547 69.2624 66.7576 71.7229 66.7576C74.0495 66.7576 75.6245 67.9209 75.8304 69.7842H74.1421C73.9362 68.8062 72.9994 68.2091 71.692 68.2091C70.2713 68.2091 69.3551 68.868 69.3551 69.8872C69.3551 70.7416 69.9316 71.2255 71.3317 71.5343L72.9067 71.8946C75.0789 72.3888 76.0672 73.3359 76.0672 74.9521C76.0672 77.0111 74.348 78.3494 71.7023 78.3494C69.1698 78.3494 67.4918 77.1655 67.2962 75.2507H69.0771C69.3345 76.2802 70.3228 76.8772 71.764 76.8772C73.2877 76.8772 74.2553 76.1875 74.2553 75.1169C74.2553 74.2315 73.7097 73.758 72.2891 73.4388L70.6316 73.0579C68.6139 72.5947 67.6153 71.5755 67.6153 69.9901ZM84.7147 78.3494C81.7601 78.3494 79.8762 76.4243 79.8762 73.4079V71.7196C79.8762 68.7033 81.7601 66.7782 84.7147 66.7782C87.6693 66.7782 89.5532 68.7033 89.5532 71.7196V73.4079C89.5532 76.4243 87.6693 78.3494 84.7147 78.3494ZM84.7147 68.3224C82.7999 68.3224 81.6057 69.6813 81.6057 71.874V73.2432C81.6057 75.4463 82.7999 76.7949 84.7147 76.7949C86.6295 76.7949 87.8237 75.4463 87.8237 73.2432V71.874C87.8237 69.6813 86.6295 68.3224 84.7147 68.3224ZM102.401 70.4534H100.671C100.455 69.146 99.364 68.3224 97.9228 68.3224C95.9771 68.3224 94.8961 69.6504 94.8961 72.049V73.0579C94.8961 75.4566 95.9771 76.7743 97.9228 76.7743C99.364 76.7743 100.455 75.961 100.671 74.6845H102.401C102.123 76.9596 100.424 78.3494 97.9536 78.3494C94.9167 78.3494 93.146 76.486 93.146 73.2844V71.8226C93.146 68.6209 94.9167 66.7576 97.9536 66.7576C100.424 66.7576 102.113 68.1577 102.401 70.4534ZM110.976 64.2354C110.153 64.2354 109.525 63.6177 109.525 62.7942C109.525 61.9809 110.153 61.3632 110.976 61.3632C111.8 61.3632 112.428 61.9809 112.428 62.7942C112.428 63.6177 111.8 64.2354 110.976 64.2354ZM115.66 78.1435H106.406V76.6919H110.235V68.4253H106.436V66.9738H111.965V76.6919H115.66V78.1435ZM122.681 78.3391C120.55 78.3391 119.13 77.0008 119.13 74.9727C119.13 72.9962 120.55 71.8226 123.093 71.6887L126.161 71.5343V70.5254C126.161 69.1254 125.307 68.3533 123.752 68.3533C122.465 68.3533 121.559 68.8989 121.271 69.8563H119.552C119.758 68.065 121.487 66.84 123.773 66.84C126.398 66.84 127.901 68.1783 127.901 70.5048V78.1538H126.233V76.4757H126.058C125.523 77.6699 124.308 78.3391 122.681 78.3391ZM123.186 76.8052C124.874 76.8052 126.161 75.6831 126.161 74.1903V72.8726L123.289 73.0065C121.724 73.0785 120.9 73.7477 120.9 74.911C120.9 76.0846 121.775 76.8052 123.186 76.8052ZM141.727 78.1435H132.472V76.6919H136.291V64.0398H132.503V62.5883H138.041V76.6919H141.727V78.1435ZM155.326 72.3682H144.434V70.7416H155.326V72.3682ZM164.653 78.1435V75.0036H157.879V73.5315L162.923 63.2883H164.776L159.804 73.2947V73.4285H164.673V69.1871H166.32V73.4079H168.585V75.0036H166.31V78.1435H164.653ZM180.517 66.9738V78.1435H178.839V76.1772H178.695C178.098 77.567 176.821 78.3494 175.122 78.3494C172.693 78.3494 171.375 76.8978 171.375 74.2212V66.9738H173.125V73.7786C173.125 75.7963 173.949 76.7434 175.689 76.7434C177.531 76.7434 178.767 75.4566 178.767 73.5521V66.9738H180.517ZM195.012 66.9738L192.613 78.1435H190.935L189.041 69.4342H188.917L187.023 78.1435H185.345L182.946 66.9738H184.655L186.169 75.9301H186.354L188.155 66.9841H189.803L191.604 75.9301H191.789L193.303 66.9738H195.012ZM200.149 71.9873L205.018 66.9738H207.139L202.805 71.4005L207.448 78.1435H205.368L201.559 72.5947L200.015 74.0771V78.1435H198.265V62.5883H200.015V71.9873H200.149ZM214.922 78.442C212.152 78.442 210.196 76.7331 210.042 74.18H211.792C211.957 75.7345 213.285 76.8052 215.024 76.8052C216.939 76.8052 218.216 75.4566 218.216 73.4388C218.216 71.4005 216.929 70.021 215.024 70.021C213.696 70.021 212.595 70.6284 212.008 71.6784H210.289L211.04 63.2883H219.163V64.9251H212.471L212.06 69.7739H212.224C212.955 68.8886 214.016 68.4253 215.323 68.4253C218.072 68.4253 219.986 70.474 219.986 73.3976C219.986 76.4037 217.938 78.442 214.922 78.442ZM233.524 72.3682H222.632V70.7416H233.524V72.3682ZM244.127 75.261H245.826C245.486 77.1037 243.716 78.3494 241.368 78.3494C238.301 78.3494 236.52 76.5066 236.52 73.3256V71.6476C236.52 68.7033 238.404 66.7679 241.245 66.7679C244.148 66.7679 245.857 68.693 245.857 71.9255V73.0167H238.249V73.4697C238.249 75.5183 239.464 76.8361 241.368 76.8361C242.779 76.8361 243.819 76.239 244.127 75.261ZM241.235 68.2709C239.371 68.2709 238.249 69.5474 238.249 71.6887H244.127C244.127 69.5577 243.036 68.2709 241.235 68.2709ZM254.844 66.7885C257.428 66.7885 259.116 68.6518 259.116 71.524V73.6035C259.116 76.4655 257.428 78.3288 254.844 78.3288C253.228 78.3288 252.044 77.639 251.56 76.414H251.365V81.9113H249.584V66.9738H251.313V68.6827H251.498C252.085 67.4473 253.249 66.7885 254.844 66.7885ZM254.34 68.3944C252.497 68.3944 251.323 69.7122 251.323 71.7711V73.3771C251.323 75.4463 252.497 76.764 254.34 76.764C256.182 76.764 257.356 75.436 257.356 73.3771V71.7711C257.356 69.7122 256.182 68.3944 254.34 68.3944ZM272.273 73.3771C272.273 76.3213 270.152 78.4523 267.208 78.4523C264.284 78.4523 262.174 76.3316 262.174 73.3771C262.174 71.6373 262.761 70.0622 264.181 67.993C264.315 67.7665 267.404 63.4427 267.507 63.2883H269.596L265.54 68.8577C265.087 69.496 265.129 69.4548 265.056 69.6195L265.211 69.7019C265.654 69.1048 266.724 68.6621 267.671 68.6621C270.317 68.6621 272.273 70.6696 272.273 73.3771ZM267.218 76.8361C269.092 76.8361 270.513 75.3742 270.513 73.4697C270.513 71.5549 269.092 70.0931 267.218 70.0931C265.355 70.0931 263.934 71.5549 263.934 73.4697C263.934 75.3742 265.355 76.8361 267.218 76.8361ZM275.639 78.1435V66.9738H277.317V68.9401H277.462C278.059 67.5503 279.335 66.7679 281.034 66.7679C283.463 66.7679 284.781 68.2194 284.781 70.896V78.1435H283.031V71.3387C283.031 69.321 282.207 68.3739 280.468 68.3739C278.625 68.3739 277.389 69.6607 277.389 71.5652V78.1435H275.639ZM296.26 75.261H297.958C297.618 77.1037 295.848 78.3494 293.501 78.3494C290.433 78.3494 288.652 76.5066 288.652 73.3256V71.6476C288.652 68.7033 290.536 66.7679 293.377 66.7679C296.28 66.7679 297.989 68.693 297.989 71.9255V73.0167H290.381V73.4697C290.381 75.5183 291.596 76.8361 293.501 76.8361C294.911 76.8361 295.951 76.239 296.26 75.261ZM293.367 68.2709C291.503 68.2709 290.381 69.5474 290.381 71.6887H296.26C296.26 69.5577 295.168 68.2709 293.367 68.2709Z" fill="white"/>
<path d="M0 71.9667H299.76V72.9962H0V71.9667Z" fill="white"/>
</svg>
